<?xml version="1.0" encoding="UTF-8"?>
<svg width="90px" height="33px" viewBox="0 0 90 33" version="1.1" xmlns="http://www.w3.org/2000/svg" xmlns:xlink="http://www.w3.org/1999/xlink">
    <!-- Generator: Sketch 47.1 (45422) - http://www.bohemiancoding.com/sketch -->
    <title>Group Copy 5</title>
    <desc>Created with Sketch.</desc>
    <defs></defs>
    <g id="Email" stroke="none" stroke-width="1" fill="none" fill-rule="evenodd">
        <g id="Group-Copy-5" fill="#FFFFFF">
            <path d="M8.76956044,5.2635 L12.8423077,5.2635 L12.0194505,9.45158824 L7.94769231,9.45158824 L6.65604396,15.8302941 C6.49879121,16.5980294 6.34252747,17.5589118 6.34252747,18.2130882 C6.34252747,19.1341765 6.73318681,19.7873824 7.94769231,19.7873824 C8.45703297,19.7873824 9.00494505,19.7873824 9.5132967,19.7097353 L8.84769231,24.0521471 C8.14351648,24.321 6.73318681,24.4762941 5.52065934,24.4762941 C2.15307692,24.4762941 0.548901099,22.7845588 0.548901099,20.4405882 C0.548901099,19.4030294 0.665604396,18.3664412 0.93956044,16.9435588 L2.42703297,9.45158824 L0,9.45158824 L0.783296703,5.2635 L3.24989011,5.2635 L4.0321978,1.30544118 L9.78824176,0 L8.76956044,5.2635 Z" id="Fill-6"></path>
            <path d="M22.9371429,24.0647647 C22.9767033,22.9505294 23.0953846,21.6829412 23.2120879,20.3386765 L23.0953846,20.3386765 C21.331978,23.4503824 18.9049451,24.4889118 16.6737363,24.4889118 C13.228022,24.4889118 10.8791209,21.8751176 10.8791209,17.9558824 C10.8791209,11.616 15.1467033,4.85294118 24.5818681,4.85294118 C26.8526374,4.85294118 29.3192308,5.27611765 30.9243956,5.77597059 L28.889011,15.6119118 C28.4182418,18.0315882 28.0671429,21.7207941 28.1442857,24.0647647 L22.9371429,24.0647647 Z M24.5818681,9.19535294 C24.1516484,9.11867647 23.6027473,9.04102941 23.0558242,9.04102941 C19.4142857,9.04102941 16.7508791,13.4212941 16.7508791,16.9192941 C16.7508791,18.7624412 17.4956044,20.031 19.0621978,20.031 C20.7454945,20.031 22.8194505,18.1470882 23.6818681,13.5367941 L24.5818681,9.19535294 L24.5818681,9.19535294 Z" id="Fill-7"></path>
            <path d="M29.6703297,24.0647647 L32.0963736,11.385 C32.5671429,9.00317647 32.8796703,6.92805882 33.116044,5.27611765 L38.1273626,5.27611765 L37.7357143,8.38782353 L37.8128571,8.38782353 C39.6148352,5.92932353 42.0023077,4.85294118 44.547033,4.85294118 C47.6802198,4.85294118 49.4416484,6.73588235 49.4416484,9.96405882 C49.4416484,10.8084706 49.2834066,12.2303824 49.1281319,13.1524412 L47.0136264,24.0647647 L41.3762637,24.0647647 L43.3740659,13.6513235 C43.4897802,12.9990882 43.5689011,12.2303824 43.5689011,11.5383529 C43.5689011,10.2329118 43.0981319,9.30988235 41.6897802,9.30988235 C39.8492308,9.30988235 37.6961538,11.5771765 36.9128571,15.7264412 L35.3076923,24.0647647 L29.6703297,24.0647647" id="Fill-8"></path>
            <path d="M50.5443986,26.6775882 C51.6016514,27.2919706 53.9505525,27.7151471 55.5557173,27.7151471 C58.3743986,27.7151471 60.4889041,26.4854118 61.2722008,22.7195294 L61.5847283,21.1442647 L61.5065964,21.1442647 C60.0191239,23.0281765 58.2962668,23.9123824 56.0254975,23.9123824 C52.2276953,23.9123824 49.9173657,20.8754118 49.8778052,17.226 C49.8778052,11.0016176 54.3807722,4.85294118 62.7191239,4.85294118 C65.4211019,4.85294118 67.8095635,5.31494118 69.8073657,6.15935294 L66.9095635,21.6441176 C66.2439591,25.1032941 65.1867063,28.1752059 62.8763766,29.9824412 C60.8004426,31.5955588 58.0213217,32.0954118 55.4765964,32.0954118 C52.9328602,32.0954118 50.5443986,31.6343824 49.2527503,30.9045 L50.5443986,26.6775882 Z M63.6992338,9.42538235 C63.268025,9.23320588 62.4461569,9.07985294 61.6628602,9.07985294 C58.2567063,9.07985294 55.8286843,12.8069118 55.8286843,16.3806176 C55.8286843,18.2635588 56.6911019,19.6456765 58.4139591,19.6456765 C60.2535195,19.6456765 62.1326404,17.6491765 62.7191239,14.4598235 L63.6992338,9.42538235 L63.6992338,9.42538235 Z" id="Fill-10"></path>
            <path d="M81.1898841,24.0647647 C81.2284555,22.9505294 81.3461478,21.6829412 81.4638401,20.3386765 L81.3461478,20.3386765 C79.5857082,23.4503824 77.1566973,24.4889118 74.9254885,24.4889118 C71.4807632,24.4889118 69.1318621,21.8751176 69.1318621,17.9558824 C69.1318621,11.616 73.3994445,4.85294118 82.8336203,4.85294118 C85.1043896,4.85294118 87.571972,5.27611765 89.1771368,5.77597059 L87.1417522,15.6119118 C86.670983,18.0315882 86.3188951,21.7207941 86.3970269,24.0647647 L81.1898841,24.0647647 Z M82.8336203,9.19535294 C82.4043896,9.11867647 81.8554885,9.04102941 81.3075764,9.04102941 C77.6660379,9.04102941 75.0046093,13.4212941 75.0046093,16.9192941 C75.0046093,18.7624412 75.7483456,20.031 77.314939,20.031 C78.9972467,20.031 81.0721918,18.1470882 81.9336203,13.5367941 L82.8336203,9.19535294 L82.8336203,9.19535294 Z" id="Fill-12"></path>
        </g>
    </g>
</svg>